<svg width="93" height="93" viewBox="0 0 93 93" fill="none" xmlns="http://www.w3.org/2000/svg">
<g filter="url(#filter0_d_21_30)">
<path d="M65.9377 18.9054L66.0198 19.5365L65.0741 19.7322L64.9483 21.0765H66.081L67.5879 20.9314L68.3657 20.0067L67.5389 19.685L67.0862 19.1641L66.4062 18.0628L66.081 16.5053L64.8032 16.7658L64.4448 17.3147V17.9335L65.0601 18.3548L65.9377 18.9054Z" fill="#FFBA08"/>
<path d="M64.8486 19.4228L64.9168 18.5803L64.1669 18.2569L63.118 18.4998L62.3401 19.748V20.5573H63.2474L64.8486 19.4228Z" fill="#FFBA08"/>
<path d="M43.2599 23.0011L43.0292 23.5955H41.9122V24.1723H42.1779C42.1779 24.1723 42.1936 24.2947 42.2163 24.4555L42.9016 24.3978L43.3299 24.1321L43.4417 23.5955L43.9959 23.5483L44.2144 23.0973L43.7057 22.9924L43.2599 23.0011Z" fill="#FFBA08"/>
<path d="M40.3809 24.0482L40.3372 24.6129L41.1465 24.5447L41.2304 23.9783L40.7445 23.5955L40.3809 24.0482Z" fill="#FFBA08"/>
<path d="M88.9895 42.0604C88.9773 40.8175 88.9143 39.5833 88.7972 38.3684C88.4039 34.3181 87.4355 30.4357 85.9846 26.7962C85.8762 26.5252 85.7766 26.2508 85.6612 25.9833C83.7278 21.4156 81.0131 17.257 77.69 13.6682C77.4715 13.4339 77.2495 13.2032 77.0275 12.9759C76.3999 12.3239 75.7549 11.6876 75.0871 11.0775C67.5319 4.19887 57.498 0 46.4991 0C35.4076 0 25.302 4.27404 17.7259 11.2576C15.9603 12.885 14.3381 14.6611 12.8662 16.563C7.31434 23.7441 4 32.7396 4 42.4991C4 65.9355 23.0662 85 46.5009 85C62.9852 85 77.2967 75.5604 84.3414 61.8066C85.8482 58.8663 87.0212 55.732 87.8113 52.4474C88.0123 51.6136 88.1854 50.7762 88.3357 49.9284C88.764 47.5143 88.9983 45.0321 88.9983 42.4991C89 42.3523 88.9913 42.2072 88.9895 42.0604ZM80.9903 25.0743L81.2368 24.7981C81.5602 25.4257 81.8626 26.0638 82.1511 26.7105L81.749 26.6948L80.9903 26.7997V25.0743ZM74.8494 17.659L74.8564 15.7606C75.5241 16.4686 76.1674 17.1975 76.7827 17.9527L76.0171 19.0924L73.3408 19.068L73.173 18.5103L74.8494 17.659ZM83.6981 31.7083H80.5883L78.6934 30.2976L76.6988 30.4916V31.7083H76.0678L75.386 31.2223L71.9318 30.3465V28.109L67.5547 28.4499L66.1982 29.1788H64.4606L63.6093 29.0932L61.4993 30.2644V32.4687L57.1868 35.5803L57.5452 36.9088H58.4192L58.1902 38.1744L57.5749 38.3999L57.5417 41.7072L61.2686 45.9516H62.8908L62.9887 45.6929H65.9045L66.7453 44.915H68.399L69.3062 45.824L71.771 46.0792L71.4441 49.3568L74.1798 54.1867L72.7394 56.94L72.8373 58.237L73.9718 59.368V62.4866L75.4612 64.4899V67.0805H76.7478C69.5877 75.8716 58.6902 81.5021 46.4974 81.5021C24.9926 81.5039 7.49614 64.0057 7.49614 42.4991C7.49614 37.0853 8.60792 31.925 10.6095 27.235V26.0183L12.0044 24.3244C12.4886 23.4102 13.0078 22.5187 13.562 21.6499L13.6249 22.3578L12.0062 24.3244C11.5045 25.2719 11.036 26.2403 10.6112 27.235V29.455L12.2317 30.2347V33.32L13.7857 35.9718L15.0496 36.1659L15.2121 35.2569L13.721 32.9564L13.4291 30.7206H14.3031L14.672 33.0211L16.8274 36.1659L16.2715 37.1815L17.642 39.2774L21.0455 40.12V39.5694L22.4072 39.7634L22.2778 40.7353L23.3477 40.9311L24.9996 41.3821L27.3333 44.0409L30.3137 44.2664L30.6057 46.698L28.5657 48.1244L28.4695 50.2955L28.1776 51.6241L31.1283 55.3177L31.3538 56.5833C31.3538 56.5833 32.4236 56.8735 32.5548 56.8735C32.6841 56.8735 34.9531 58.5919 34.9531 58.5919V65.2678L35.7625 65.495L35.2118 68.5751L36.5736 70.3914L36.3218 73.4435L38.1206 76.6058L40.4298 78.623L42.7513 78.665L42.9785 77.9186L41.2724 76.4816L41.3703 75.7684L41.6762 74.8944L41.7409 74.0029L40.5871 73.9679L40.005 73.2372L40.963 72.316L41.0923 71.6203L40.0225 71.3143L40.0854 70.6676L41.6098 70.4368L43.9277 69.3233L44.7056 67.8969L47.1372 64.7853L46.5848 62.352L47.3312 61.0567L49.567 61.1248L51.0721 59.9326L51.558 55.2373L53.2275 53.1169L53.5194 51.7552L51.9968 51.2675L50.9917 49.619L47.5567 49.5841L44.8332 48.5457L44.7039 46.6036L43.7949 45.0146L41.3318 44.9779L39.9089 42.7439L38.645 42.1268L38.5804 42.8085L36.2799 42.9449L35.4373 41.7719L33.0372 41.2842L31.0602 43.5689L27.9486 43.041L27.7231 39.5344L25.4523 39.1463L26.3631 37.4262L26.1026 36.4386L23.1187 38.4331L21.2412 38.2041L20.5717 36.7375L20.9808 35.2254L22.0156 33.3183L24.3983 32.1121L28.9992 32.1103L28.9869 33.514L30.6406 34.2832L30.5095 31.8848L31.7017 30.6857L34.107 29.1054L34.2714 27.9936L36.6697 25.4974L39.2202 24.0849L38.9947 23.8996L40.7217 22.2739L41.3545 22.4417L41.6447 22.8053L42.3003 22.0781L42.4611 22.0065L41.7426 21.9051L41.0137 21.6621V20.9629L41.4 20.6465H42.2513L42.6411 20.8178L42.9785 21.4995L43.3911 21.4366V21.3772L43.5099 21.4174L44.7056 21.2338L44.8752 20.65L45.5569 20.8213V21.4541L44.9241 21.8894H44.9259L45.0185 22.5833L47.1844 23.2511C47.1844 23.2511 47.1861 23.2598 47.1896 23.2773L47.6878 23.2354L47.721 22.2967L46.0044 21.5153L45.9065 21.0643L47.3312 20.5783L47.3941 19.2148L45.9048 18.3076L45.8069 16.0088L43.7651 17.0122H43.0205L43.2162 15.2624L40.4368 14.6069L39.2866 15.4757V18.1258L37.2186 18.7813L36.39 20.5084L35.4915 20.6535V18.4439L33.5477 18.1747L32.5757 17.5419L32.1842 16.1102L35.6611 14.0755L37.362 13.558L37.5333 14.7013L38.4807 14.6523L38.5541 14.0772L39.5453 13.9356L39.5628 13.7346L39.1362 13.558L39.0384 12.9497L40.2568 12.8466L40.9927 12.0809L41.0329 12.025L41.0416 12.0285L41.2654 11.7977L43.8263 11.4743L44.9591 12.4358L41.9891 14.0178L45.7684 14.9093L46.2579 13.6455H47.9098L48.4937 12.5442L47.326 12.2522V10.859L43.6638 9.23681L41.136 9.52874L39.7096 10.2752L39.8075 12.0897L38.3164 11.8624L38.0874 10.859L39.5156 9.56195L36.9232 9.4326L36.1785 9.6581L35.8551 10.5321L36.827 10.6965L36.633 11.6684L34.9811 11.7663L34.7224 12.4131L32.3258 12.4795C32.3258 12.4795 32.2593 11.1195 32.1632 11.1195C32.067 11.1195 34.0424 11.0863 34.0424 11.0863L35.4705 9.69131L34.6909 9.30149L33.6543 10.3084L31.9342 10.2105L30.8976 8.78406H28.6933L26.3928 10.5024H28.501L28.6933 11.1195L28.1461 11.6282L30.4798 11.6929L30.8364 12.5354L28.209 12.4375L28.0814 11.789L26.4295 11.4324L25.5537 10.9464L23.5871 10.9622C30.0253 6.27208 37.9423 3.49614 46.4991 3.49614C56.3617 3.49614 65.3731 7.18283 72.2482 13.2399L71.785 14.0685L69.9862 14.773L69.2276 15.5963L69.4024 16.556L70.3306 16.6853L70.89 18.0838L72.4912 17.4388L72.7552 19.3092H72.2727L70.9582 19.1152L69.5003 19.3599L68.0896 21.3527L66.0723 21.6691L65.7804 23.3962L66.6317 23.5972L66.3852 24.7073L64.3819 24.3052L62.5447 24.7073L62.1549 25.7299L62.473 27.8765L63.5516 28.3817L65.3608 28.3712L66.5827 28.2611L66.9551 27.2892L68.864 24.8086L70.1208 25.0656L71.3585 23.9468L71.5892 24.8209L74.6343 26.8749L74.262 27.3748L72.8898 27.3014L73.4177 28.0496L74.262 28.2349L75.2514 27.8223L75.2304 26.6301L75.6692 26.4099L75.3161 26.0358L73.2848 24.903L72.7499 23.3979H74.4386L74.9787 23.9329L76.4331 25.1862L76.4943 26.7018L78.0011 28.3065L78.5623 26.1075L79.6059 25.5376L79.8016 27.3363L80.8208 28.4551L82.8538 28.4202C83.2471 29.4323 83.6002 30.4619 83.9096 31.5125L83.6981 31.7083ZM84.3309 33.6766L84.4533 33.5333C84.504 33.7535 84.5582 33.9738 84.6071 34.1975L84.3309 33.6766Z" fill="#FFBA08"/>
<path d="M10.6112 26.0183V27.235C11.036 26.2421 11.5045 25.2736 12.0062 24.3244L10.6112 26.0183Z" fill="#FFBA08"/>
</g>
<defs>
<filter id="filter0_d_21_30" x="0" y="0" width="93" height="93" filterUnits="userSpaceOnUse" color-interpolation-filters="sRGB">
<feFlood flood-opacity="0" result="BackgroundImageFix"/>
<feColorMatrix in="SourceAlpha" type="matrix" values="0 0 0 0 0 0 0 0 0 0 0 0 0 0 0 0 0 0 127 0" result="hardAlpha"/>
<feOffset dy="4"/>
<feGaussianBlur stdDeviation="2"/>
<feComposite in2="hardAlpha" operator="out"/>
<feColorMatrix type="matrix" values="0 0 0 0 0 0 0 0 0 0 0 0 0 0 0 0 0 0 0.25 0"/>
<feBlend mode="normal" in2="BackgroundImageFix" result="effect1_dropShadow_21_30"/>
<feBlend mode="normal" in="SourceGraphic" in2="effect1_dropShadow_21_30" result="shape"/>
</filter>
</defs>
</svg>
